<svg version="1.1" xmlns="http://www.w3.org/2000/svg" xmlns:xlink="http://www.w3.org/1999/xlink" x="0px"
     y="0px"
     viewBox="0 0 50 50"

     style="enable-background:new 0 0 310 310;" xml:space="preserve"
>

	<g id="facebook">
		<path id="XMLID_835_" d="M81.703,165.106h33.981V305c0,2.762,2.238,5,5,5h57.616c2.762,0,5-2.238,5-5V165.765h39.064
			c2.54,0,4.677-1.906,4.967-4.429l5.933-51.502c0.163-1.417-0.286-2.836-1.234-3.899c-0.949-1.064-2.307-1.673-3.732-1.673h-44.996
			V71.978c0-9.732,5.24-14.667,15.576-14.667c1.473,0,29.42,0,29.42,0c2.762,0,5-2.239,5-5V5.037c0-2.762-2.238-5-5-5h-40.545
			C187.467,0.023,186.832,0,185.896,0c-7.035,0-31.488,1.381-50.804,19.151c-21.402,19.692-18.427,43.27-17.716,47.358v37.752H81.703
			c-2.762,0-5,2.238-5,5v50.844C76.703,162.867,78.941,165.106,81.703,165.106z"/>
	</g>

    <g id="github">
		<path d="M16 0.396c-8.839 0-16 7.167-16 16 0 7.073 4.584 13.068 10.937 15.183 0.803 0.151 1.093-0.344 1.093-0.772 0-0.38-0.009-1.385-0.015-2.719-4.453 0.964-5.391-2.151-5.391-2.151-0.729-1.844-1.781-2.339-1.781-2.339-1.448-0.989 0.115-0.968 0.115-0.968 1.604 0.109 2.448 1.645 2.448 1.645 1.427 2.448 3.744 1.74 4.661 1.328 0.14-1.031 0.557-1.74 1.011-2.135-3.552-0.401-7.287-1.776-7.287-7.907 0-1.751 0.62-3.177 1.645-4.297-0.177-0.401-0.719-2.031 0.141-4.235 0 0 1.339-0.427 4.4 1.641 1.281-0.355 2.641-0.532 4-0.541 1.36 0.009 2.719 0.187 4 0.541 3.043-2.068 4.381-1.641 4.381-1.641 0.859 2.204 0.317 3.833 0.161 4.235 1.015 1.12 1.635 2.547 1.635 4.297 0 6.145-3.74 7.5-7.296 7.891 0.556 0.479 1.077 1.464 1.077 2.959 0 2.14-0.020 3.864-0.020 4.385 0 0.416 0.28 0.916 1.104 0.755 6.4-2.093 10.979-8.093 10.979-15.156 0-8.833-7.161-16-16-16z"/>
	</g>

    <g id="instagram">
		<path d="M12,9.52A2.48,2.48,0,1,0,14.48,12,2.48,2.48,0,0,0,12,9.52Zm9.93-2.45a6.53,6.53,0,0,0-.42-2.26,4,4,0,0,0-2.32-2.32,6.53,6.53,0,0,0-2.26-.42C15.64,2,15.26,2,12,2s-3.64,0-4.93.07a6.53,6.53,0,0,0-2.26.42A4,4,0,0,0,2.49,4.81a6.53,6.53,0,0,0-.42,2.26C2,8.36,2,8.74,2,12s0,3.64.07,4.93a6.86,6.86,0,0,0,.42,2.27,3.94,3.94,0,0,0,.91,1.4,3.89,3.89,0,0,0,1.41.91,6.53,6.53,0,0,0,2.26.42C8.36,22,8.74,22,12,22s3.64,0,4.93-.07a6.53,6.53,0,0,0,2.26-.42,3.89,3.89,0,0,0,1.41-.91,3.94,3.94,0,0,0,.91-1.4,6.6,6.6,0,0,0,.42-2.27C22,15.64,22,15.26,22,12S22,8.36,21.93,7.07Zm-2.54,8A5.73,5.73,0,0,1,19,16.87,3.86,3.86,0,0,1,16.87,19a5.73,5.73,0,0,1-1.81.35c-.79,0-1,0-3.06,0s-2.27,0-3.06,0A5.73,5.73,0,0,1,7.13,19a3.51,3.51,0,0,1-1.31-.86A3.51,3.51,0,0,1,5,16.87a5.49,5.49,0,0,1-.34-1.81c0-.79,0-1,0-3.06s0-2.27,0-3.06A5.49,5.49,0,0,1,5,7.13a3.51,3.51,0,0,1,.86-1.31A3.59,3.59,0,0,1,7.13,5a5.73,5.73,0,0,1,1.81-.35h0c.79,0,1,0,3.06,0s2.27,0,3.06,0A5.73,5.73,0,0,1,16.87,5a3.51,3.51,0,0,1,1.31.86A3.51,3.51,0,0,1,19,7.13a5.73,5.73,0,0,1,.35,1.81c0,.79,0,1,0,3.06S19.42,14.27,19.39,15.06Zm-1.6-7.44a2.38,2.38,0,0,0-1.41-1.41A4,4,0,0,0,15,6c-.78,0-1,0-3,0s-2.22,0-3,0a4,4,0,0,0-1.38.26A2.38,2.38,0,0,0,6.21,7.62,4.27,4.27,0,0,0,6,9c0,.78,0,1,0,3s0,2.22,0,3a4.27,4.27,0,0,0,.26,1.38,2.38,2.38,0,0,0,1.41,1.41A4.27,4.27,0,0,0,9,18.05H9c.78,0,1,0,3,0s2.22,0,3,0a4,4,0,0,0,1.38-.26,2.38,2.38,0,0,0,1.41-1.41A4,4,0,0,0,18.05,15c0-.78,0-1,0-3s0-2.22,0-3A3.78,3.78,0,0,0,17.79,7.62ZM12,15.82A3.81,3.81,0,0,1,8.19,12h0A3.82,3.82,0,1,1,12,15.82Zm4-6.89a.9.9,0,0,1,0-1.79h0a.9.9,0,0,1,0,1.79Z"/>
	</g>

    <g id="linkedin">
		<path id="XMLID_802_" d="M72.16,99.73H9.927c-2.762,0-5,2.239-5,5v199.928c0,2.762,2.238,5,5,5H72.16c2.762,0,5-2.238,5-5V104.73
		C77.16,101.969,74.922,99.73,72.16,99.73z"/>
        <path id="XMLID_803_" d="M41.066,0.341C18.422,0.341,0,18.743,0,41.362C0,63.991,18.422,82.4,41.066,82.4
		c22.626,0,41.033-18.41,41.033-41.038C82.1,18.743,63.692,0.341,41.066,0.341z"/>
        <path id="XMLID_804_" d="M230.454,94.761c-24.995,0-43.472,10.745-54.679,22.954V104.73c0-2.761-2.238-5-5-5h-59.599
		c-2.762,0-5,2.239-5,5v199.928c0,2.762,2.238,5,5,5h62.097c2.762,0,5-2.238,5-5v-98.918c0-33.333,9.054-46.319,32.29-46.319
		c25.306,0,27.317,20.818,27.317,48.034v97.204c0,2.762,2.238,5,5,5H305c2.762,0,5-2.238,5-5V194.995
		C310,145.43,300.549,94.761,230.454,94.761z"/>
	</g>

    <g id="vk">
		<path d="M17.802 12.298s1.617 1.597 2.017 2.336a.127.127 0 0 1 .018.035c.163.273.203.487.123.645-.135.261-.592.392-.747.403h-2.858c-.199 0-.613-.052-1.117-.4-.385-.269-.768-.712-1.139-1.145-.554-.643-1.033-1.201-1.518-1.201a.548.548 0 0 0-.18.03c-.367.116-.833.639-.833 2.032 0 .436-.344.684-.585.684H9.674c-.446 0-2.768-.156-4.827-2.327C2.324 10.732.058 5.4.036 5.353c-.141-.345.155-.533.475-.533h2.886c.387 0 .513.234.601.444.102.241.48 1.205 1.1 2.288 1.004 1.762 1.621 2.479 2.114 2.479a.527.527 0 0 0 .264-.07c.644-.354.524-2.654.494-3.128 0-.092-.001-1.027-.331-1.479-.236-.324-.638-.45-.881-.496.065-.094.203-.238.38-.323.441-.22 1.238-.252 2.029-.252h.439c.858.012 1.08.067 1.392.146.628.15.64.557.585 1.943-.016.396-.033.842-.033 1.367 0 .112-.005.237-.005.364-.019.711-.044 1.512.458 1.841a.41.41 0 0 0 .217.062c.174 0 .695 0 2.108-2.425.62-1.071 1.1-2.334 1.133-2.429.028-.053.112-.202.214-.262a.479.479 0 0 1 .236-.056h3.395c.37 0 .621.056.67.196.082.227-.016.92-1.566 3.016-.261.349-.49.651-.691.915-1.405 1.844-1.405 1.937.083 3.337z"/>
	</g>

    <g id="home">
		<path d="M31.772 16.043l-15.012-15.724c-0.189-0.197-0.449-0.307-0.721-0.307s-0.533 0.111-0.722 0.307l-15.089 15.724c-0.383 0.398-0.369 1.031 0.029 1.414 0.399 0.382 1.031 0.371 1.414-0.029l1.344-1.401v14.963c0 0.552 0.448 1 1 1h6.986c0.551 0 0.998-0.445 1-0.997l0.031-9.989h7.969v9.986c0 0.552 0.448 1 1 1h6.983c0.552 0 1-0.448 1-1v-14.968l1.343 1.407c0.197 0.204 0.459 0.308 0.722 0.308 0.249 0 0.499-0.092 0.692-0.279 0.398-0.382 0.411-1.015 0.029-1.413zM26.985 14.213v15.776h-4.983v-9.986c0-0.552-0.448-1-1-1h-9.965c-0.551 0-0.998 0.445-1 0.997l-0.031 9.989h-4.989v-15.777c0-0.082-0.013-0.162-0.032-0.239l11.055-11.52 10.982 11.507c-0.021 0.081-0.036 0.165-0.036 0.252z"/>
	</g>

    <g id="mail">
		<path d="M24,21H0V3h24V21z M2,19h20V8.1l-10,8.2L2,8.1V19z M2,5.5l10,8.2l10-8.2V5H2V5.5z"/>
	</g>

    <g id="portfolio">
		<path d="M19.732 7.203v-2.666h-7.464v2.666h-9.063v20.259h25.59v-20.259h-9.063zM13.334 5.604h5.331v1.599h-5.331v-1.599zM12.268 8.27h15.461v8.53h-7.997v-2.133h-7.464v2.133h-7.997v-8.53h7.997zM18.666 15.733v3.199h-5.331v-3.199h5.331zM4.271 26.396v-8.53h7.997v2.133h7.464v-2.133h7.997v8.53h-23.457z"/>
	</g>

    <g id="skills">
		<path d="M30,30H22V4h8Zm-6-2h4V6H24Z"/>
        <path d="M20,30H12V12h8Zm-6-2h4V14H14Z"/>
        <path d="M10,30H2V18h8ZM4,28H8V20H4Z"/>
	</g>

    <g id="user">
		<path fill-rule="evenodd" clip-rule="evenodd"
              d="M8 9C8 6.79086 9.79086 5 12 5C14.2091 5 16 6.79086 16 9C16 11.2091 14.2091 13 12 13C9.79086 13 8 11.2091 8 9ZM15.8243 13.6235C17.1533 12.523 18 10.8604 18 9C18 5.68629 15.3137 3 12 3C8.68629 3 6 5.68629 6 9C6 10.8604 6.84668 12.523 8.17572 13.6235C4.98421 14.7459 3 17.2474 3 20C3 20.5523 3.44772 21 4 21C4.55228 21 5 20.5523 5 20C5 17.7306 7.3553 15 12 15C16.6447 15 19 17.7306 19 20C19 20.5523 19.4477 21 20 21C20.5523 21 21 20.5523 21 20C21 17.2474 19.0158 14.7459 15.8243 13.6235Z"/>
	</g>


    <!--	SKILLS   -->
    <g id="react">
  		<path d="m15.902 11.974c0 1.331-1.079 2.41-2.41 2.41s-2.41-1.079-2.41-2.41 1.079-2.41 2.41-2.41 2.41 1.079 2.41 2.41z"/>
        <path d="m13.491 17.494c-.201.005-.438.008-.676.008-2.811 0-5.522-.425-8.073-1.214l.193.051c-1.351-.436-2.522-1.079-3.541-1.903l.021.016c-.789-.571-1.32-1.455-1.41-2.467l-.001-.013c0-1.594 1.747-3.154 4.681-4.172 2.512-.827 5.403-1.304 8.405-1.304.139 0 .278.001.417.003h-.021c.116-.002.252-.003.389-.003 2.965 0 5.82.469 8.496 1.337l-.195-.055c1.305.424 2.438 1.036 3.433 1.814l-.024-.018c.775.546 1.298 1.404 1.386 2.387l.001.013c0 1.656-1.954 3.332-5.103 4.374-2.363.729-5.08 1.149-7.895 1.149-.17 0-.339-.002-.508-.005h.025zm0-9.84c-.106-.002-.232-.002-.358-.002-2.881 0-5.656.452-8.259 1.289l.191-.053c-2.698.941-3.908 2.228-3.908 3.087 0 .893 1.301 2.3 4.153 3.274 2.249.697 4.834 1.099 7.513 1.099.235 0 .469-.003.702-.009l-.034.001c.146.003.318.005.49.005 2.684 0 5.274-.4 7.715-1.143l-.187.049c2.96-.984 4.32-2.391 4.32-3.28-.102-.638-.462-1.176-.966-1.515l-.008-.005c-.866-.674-1.876-1.217-2.97-1.574l-.07-.02c-2.368-.766-5.093-1.208-7.92-1.208-.142 0-.283.001-.424.003h.021z"/>
        <path d="m8.023 23.986c-.016 0-.035.001-.053.001-.453 0-.878-.119-1.245-.327l.013.007c-1.378-.8-1.858-3.092-1.28-6.141.697-3.128 1.827-5.894 3.344-8.4l-.069.124c1.499-2.655 3.31-4.926 5.425-6.872l.02-.018c.923-.844 2.003-1.537 3.187-2.028l.073-.027c.407-.196.885-.31 1.39-.31.501 0 .976.113 1.4.314l-.02-.008c1.435.826 1.911 3.36 1.238 6.606-.72 2.967-1.818 5.58-3.262 7.959l.07-.123c-1.452 2.63-3.209 4.882-5.266 6.819l-.014.013c-.958.877-2.083 1.59-3.321 2.082l-.074.026c-.46.181-.992.292-1.549.305h-.006zm1.205-14.447.499.288c-1.381 2.28-2.465 4.926-3.106 7.74l-.034.18c-.533 2.809-.019 4.498.72 4.926.191.102.417.161.657.161.02 0 .041 0 .061-.001h-.003c.955 0 2.458-.605 4.196-2.122 1.976-1.867 3.654-4.023 4.972-6.404l.068-.135c1.318-2.156 2.371-4.653 3.025-7.307l.038-.182c.629-3.058.086-4.93-.686-5.378-.238-.094-.514-.148-.802-.148-.364 0-.708.087-1.012.24l.013-.006c-1.118.465-2.078 1.086-2.907 1.846l.007-.006c-2.041 1.881-3.772 4.057-5.136 6.468l-.069.132z"/>
        <path d="m18.96 24c-1.306 0-2.96-.787-4.69-2.276-2.175-1.983-4.017-4.282-5.464-6.834l-.072-.137c-1.43-2.349-2.551-5.075-3.215-7.975l-.036-.185c-.162-.709-.255-1.522-.255-2.357 0-.527.037-1.044.108-1.551l-.007.058c.085-.998.608-1.858 1.372-2.399l.01-.007c1.43-.83 3.865.024 6.342 2.228 2.022 1.914 3.748 4.113 5.118 6.54l.072.138c1.428 2.297 2.557 4.961 3.242 7.798l.038.186c.163.709.257 1.524.257 2.36 0 .577-.044 1.143-.13 1.696l.008-.062c-.103 1.022-.644 1.901-1.429 2.456l-.011.007c-.348.199-.764.316-1.207.316-.018 0-.036 0-.054-.001h.003zm-9.228-9.823c1.458 2.571 3.217 4.771 5.271 6.656l.02.018c2.166 1.863 3.884 2.266 4.628 1.834.773-.446 1.339-2.276.754-5.233-.702-2.89-1.787-5.434-3.219-7.741l.065.112c-1.379-2.456-3.027-4.562-4.948-6.384l-.012-.011c-2.334-2.074-4.225-2.54-4.998-2.094-.473.385-.784.952-.825 1.593v.007c-.055.39-.086.84-.086 1.298 0 .757.086 1.493.248 2.201l-.013-.066c.673 2.952 1.747 5.559 3.182 7.924l-.066-.117z"/>
	</g>

    <g id="js">
		    <path d="M14.478,14.8829a4.06111,4.06111,0,0,1-2.18725-.39825,1.4389,1.4389,0,0,1-.53547-1.01019.22184.22184,0,0,0-.22662-.21942c-.31659-.00385-.63312-.003-.94965-.00043a.2113.2113,0,0,0-.23138.18628,2.33854,2.33854,0,0,0,.75305,1.84454,3.99135,3.99135,0,0,0,2.22827.8382,8.06151,8.06151,0,0,0,2.53308-.10755,3.12591,3.12591,0,0,0,1.67823-.90442,2.33824,2.33824,0,0,0,.396-2.23077,1.869,1.869,0,0,0-1.2304-1.09454c-1.28077-.4494-2.66431-.41541-3.97-.7569-.22668-.07135-.50366-.1488-.60467-.38879a.85461.85461,0,0,1,.28418-.95478,2.5576,2.5576,0,0,1,1.34875-.33581,4.07051,4.07051,0,0,1,1.88416.26959,1.43564,1.43564,0,0,1,.68677.99219.243.243,0,0,0,.2276.23565c.31433.00641.62878.00171.94311.00214a.22791.22791,0,0,0,.24732-.16772,2.43369,2.43369,0,0,0-1.18665-2.106,5.8791,5.8791,0,0,0-3.2182-.49243V8.08341a3.50546,3.50546,0,0,0-2.17615.87438,2.1746,2.1746,0,0,0-.43438,2.26264,1.92964,1.92964,0,0,0,1.21838,1.06177c1.27649.46106,2.67554.31311,3.96442.72082.25116.08521.54364.21552.6206.49506a.9907.9907,0,0,1-.26965.94616A2.97065,2.97065,0,0,1,14.478,14.8829Zm5.81891-8.44537q-3.73837-2.114-7.47845-4.22418a1.67742,1.67742,0,0,0-1.63733,0Q7.4556,4.31715,3.72968,6.42075a1.54242,1.54242,0,0,0-.8042,1.34271V16.2377a1.55266,1.55266,0,0,0,.8352,1.355c.71351.38837,1.40674.81629,2.13318,1.17884a3.06373,3.06373,0,0,0,2.73822.07525,2.1275,2.1275,0,0,0,.99482-1.92114c.00555-2.79669.00085-5.59351.00213-8.39026a.21981.21981,0,0,0-.20727-.25415c-.31739-.00513-.63526-.003-.95264-.00085a.20935.20935,0,0,0-.228.21368c-.00427,2.77875.00086,5.55829-.00256,8.33746a.94053.94053,0,0,1-.609.88373,1.53242,1.53242,0,0,1-1.23993-.16595q-.99152-.56-1.983-1.11988a.23714.23714,0,0,1-.13464-.23529q0-4.19383,0-8.38726a.2589.2589,0,0,1,.157-.2602Q8.1423,5.4553,11.85419,3.35953a.258.258,0,0,1,.29163.00043Q15.859,5.452,19.57184,7.5455a.262.262,0,0,1,.15613.26142Q19.72733,12,19.72712,16.19376a.242.242,0,0,1-.13294.23828q-3.65643,2.06753-7.31677,4.12909c-.11658.06494-.25458.16943-.39093.09076-.6391-.36176-1.27039-.73755-1.90735-1.10273a.20589.20589,0,0,0-.22968-.01379,5.21834,5.21834,0,0,1-.88208.41162c-.13806.05591-.30792.07184-.40295.19989a1.31566,1.31566,0,0,0,.43127.31061q1.11741.647,2.236,1.29285a1.62967,1.62967,0,0,0,1.65539.046q3.7261-2.101,7.45185-4.20392a1.55627,1.55627,0,0,0,.83563-1.35474V7.76346A1.53956,1.53956,0,0,0,20.29694,6.43753Z"/>
	</g>

    <g id="ts">
		<path d="M23.25,24H0.75C0.336,24,0,23.664,0,23.25V0.75C0,0.336,0.336,0,0.75,0h22.5C23.664,0,24,0.336,24,0.75v22.5C24,23.664,23.664,24,23.25,24z M1.5,22.5h21v-21h-21V22.5z"/>
        <path d="M13.232,12.5h-7.5c-0.414,0-0.75-0.336-0.75-0.75S5.318,11,5.732,11h7.5c0.414,0,0.75,0.336,0.75,0.75S13.646,12.5,13.232,12.5z"/>
        <path d="M9.482 22c-.414 0-.75-.336-.75-.75v-9.436c0-.414.336-.75.75-.75s.75.336.75.75v9.436C10.232 21.664 9.896 22 9.482 22zM18.25 22c-1.289 0-2.469-.602-3.08-1.569-.221-.351-.116-.813.234-1.035.349-.22.813-.116 1.034.234.333.528 1.044.87 1.811.87 1.084 0 2-.687 2-1.5 0-.736-.746-1.336-2.218-1.782C15.916 16.575 14.75 15.433 14.75 14c0-1.654 1.57-3 3.5-3 .677 0 1.334.165 1.9.478.363.199.495.656.294 1.019-.199.363-.656.495-1.019.294-.344-.189-.751-.29-1.175-.29-1.084 0-2 .687-2 1.5 0 .965 1.39 1.531 2.218 1.782 2.713.823 3.282 2.204 3.282 3.218C21.75 20.654 20.18 22 18.25 22z"/>
	</g>

    <g id="redux">
		<path d="m17.54 16.745c.893-.089 1.585-.837 1.585-1.746 0-.036-.001-.072-.003-.108v.005c-.047-.963-.834-1.726-1.801-1.736h-.065c-.968.036-1.739.829-1.739 1.802 0 .022 0 .044.001.067v-.003c.026.473.22.897.522 1.217l-.001-.001c-1.187 2.214-3.001 3.96-5.204 5.031l-.069.03c-1.192.66-2.614 1.048-4.127 1.048-.383 0-.761-.025-1.13-.073l.044.005c-1.361-.131-2.533-.844-3.277-1.884l-.009-.014c-.537-.755-.858-1.695-.858-2.711 0-.837.218-1.623.601-2.305l-.012.024c.547-1.036 1.293-1.898 2.194-2.562l.021-.014c-.171-.453-.324-.999-.432-1.56l-.011-.066c-4.683 3.349-4.208 7.93-2.786 10.095 1.243 1.586 3.159 2.596 5.311 2.596.098 0 .195-.002.292-.006h-.014c.035.001.077.001.119.001.647 0 1.276-.075 1.88-.216l-.056.011c4.008-.734 7.29-3.317 8.974-6.814l.032-.074z"/>
        <path d="m23.18 12.799c-2.403-2.74-5.91-4.46-9.82-4.46-.119 0-.239.002-.357.005h.018-.538c-.283-.567-.86-.95-1.526-.95-.02 0-.039 0-.059.001h.003-.039c-.966.014-1.744.8-1.744 1.768 0 .029.001.057.002.085v-.004c.045.963.832 1.728 1.8 1.738h.079c.714-.028 1.317-.472 1.577-1.094l.004-.012h.585c2.554.003 4.924.787 6.884 2.128l-.042-.027c1.531.98 2.713 2.388 3.392 4.055l.021.058c.26.542.411 1.178.411 1.849 0 .71-.169 1.38-.47 1.972l.011-.025c-.777 1.586-2.379 2.658-4.231 2.658-.068 0-.135-.001-.202-.004h.01c-1.137-.024-2.21-.274-3.183-.707l.052.021c-.379.316-1.011.836-1.47 1.153 1.214.596 2.638.959 4.143.994h.012c.059.002.128.003.197.003 2.552 0 4.787-1.355 6.026-3.384l.018-.031c.342-.811.54-1.753.54-2.742 0-1.98-.796-3.774-2.085-5.079l.001.001-.015.032z"/>
        <path d="m6.844 17.316c.044.964.833 1.731 1.803 1.738h.064c.968-.033 1.741-.827 1.741-1.8 0-.99-.799-1.794-1.788-1.801h-.067c-.01-.001-.022-.001-.033-.001-.073 0-.143.011-.209.033l.005-.001c-1.07-1.741-1.703-3.85-1.703-6.107 0-.364.016-.724.049-1.079l-.003.046c.091-1.906.791-3.633 1.907-5.007l-.012.016c.991-1.071 2.387-1.753 3.944-1.803h.009c3.412-.064 4.835 4.188 4.945 5.878l1.582.473c-.368-5.181-3.59-7.901-6.671-7.901-3.132.163-5.731 2.27-6.622 5.131l-.014.052c-.438 1.262-.692 2.716-.692 4.229 0 2.588.741 5.003 2.021 7.044l-.032-.055c-.143.216-.228.481-.228.766 0 .053.003.105.009.156l-.001-.006z"/>

	</g>

	<g id="restAPI">
		<path d="M58.199,48.02c-0.549-0.103-1.069,0.241-1.18,0.781C55.903,54.303,51.574,58,46.249,58c-5.028,0-9.446-3.3-10.948-8H40v-2
		h-8v8h2v-3.849C36.169,56.833,40.915,60,46.249,60c6.304,0,11.42-4.341,12.731-10.801C59.09,48.657,58.74,48.13,58.199,48.02z"/>
		<path d="M58,40.309C55.75,35.854,51.296,33,46.249,33c-6.109,0-11.541,3.997-13.209,9.721c-0.154,0.53,0.15,1.085,0.681,1.239
		c0.531,0.155,1.086-0.15,1.239-0.681C36.358,38.482,41.105,35,46.249,35c4.565,0,8.562,2.766,10.33,7H52v2h8v-8h-2V40.309z"/>
		<path d="M10.5,6C8.019,6,6,8.019,6,10.5S8.019,15,10.5,15s4.5-2.019,4.5-4.5S12.981,6,10.5,6z M10.5,13C9.121,13,8,11.879,8,10.5
		S9.121,8,10.5,8S13,9.121,13,10.5S11.879,13,10.5,13z"/>
		<circle cx="50" cy="9" r="1"/>
		<circle cx="46" cy="9" r="1"/>
		<circle cx="52" cy="12" r="1"/>
		<circle cx="48" cy="12" r="1"/>
		<circle cx="42" cy="9" r="1"/>
		<circle cx="44" cy="12" r="1"/>
		<circle cx="38" cy="9" r="1"/>
		<circle cx="40" cy="12" r="1"/>
		<circle cx="34" cy="9" r="1"/>
		<circle cx="36" cy="12" r="1"/>
		<path d="M60,16.392V4.608C60,2.067,57.933,0,55.392,0H4.608C2.067,0,0,2.067,0,4.608v11.783C0,17.86,0.703,19.155,1.777,20
		C0.703,20.845,0,22.14,0,23.608v11.783C0,36.86,0.703,38.155,1.777,39C0.703,39.845,0,41.14,0,42.608v11.783
		C0,56.933,2.067,59,4.608,59H28v-2H4.608C3.17,57,2,55.83,2,54.392V42.608C2,41.17,3.17,40,4.608,40H30v-2H4.608
		C3.17,38,2,36.83,2,35.392V23.608C2,22.17,3.17,21,4.608,21h50.783C56.83,21,58,22.17,58,23.608V31h2v-7.392
		c0-1.469-0.703-2.764-1.777-3.608C59.297,19.155,60,17.86,60,16.392z M4.608,19C3.17,19,2,17.83,2,16.392V4.608
		C2,3.17,3.17,2,4.608,2h50.783C56.83,2,58,3.17,58,4.608v11.783C58,17.83,56.83,19,55.392,19H4.608z"/>
		<path d="M6,29.5c0,2.481,2.019,4.5,4.5,4.5s4.5-2.019,4.5-4.5S12.981,25,10.5,25S6,27.019,6,29.5z M13,29.5
		c0,1.379-1.121,2.5-2.5,2.5S8,30.879,8,29.5S9.121,27,10.5,27S13,28.121,13,29.5z"/>
		<circle cx="50" cy="28" r="1"/>
		<circle cx="46" cy="28" r="1"/>
		<circle cx="52" cy="31" r="1"/>
		<circle cx="48" cy="31" r="1"/>
		<circle cx="42" cy="28" r="1"/>
		<circle cx="44" cy="31" r="1"/>
		<circle cx="38" cy="28" r="1"/>
		<circle cx="40" cy="31" r="1"/>
		<circle cx="34" cy="28" r="1"/>
		<circle cx="36" cy="31" r="1"/>
		<path d="M6,48.5c0,2.481,2.019,4.5,4.5,4.5s4.5-2.019,4.5-4.5S12.981,44,10.5,44S6,46.019,6,48.5z M13,48.5
		c0,1.379-1.121,2.5-2.5,2.5S8,49.879,8,48.5S9.121,46,10.5,46S13,47.121,13,48.5z"/>
	</g>

	<g id="materialUI">
		<path d="M0 2.475v10.39l3 1.733V7.67l6 3.465 6-3.465v3.465l-6 3.463v3.464l6 3.463 9-5.195V9.402l-3 1.733v3.463l-6 3.464-3-1.732 6-3.465V2.475L9 7.67 0 2.475zm24 0l-3 1.73V7.67l3-1.732V2.474Z"/>
	</g>

	<g id="unitTest">
		<path d="M198.637,45.325l9.9-9.9c8.3-8.3,8.3-20.9,0-29.2s-20.9-8.3-29.2,0l-173.1,172c-8.3,8.3-8.3,20.9,0,29.2
		c11.5,11.5,25.5,4.4,28.1,1l10.5-10.4l260.6,260.6c44.3,42,107.2,42.1,153.3-1c43.5-45.4,39.9-113,0-152.2L198.637,45.325z
		 M74.137,169.025l96.2-95.6l190.4,190.4h-191.8L74.137,169.025z M430.637,429.525c-33.6,28.5-69.9,23.7-95.9,0l-124.1-124h190.8
		c0.3,0,0.7,0,1,0l28.2,28.2C454.637,360.325,458.837,399.825,430.637,429.525z"/>
	</g>

	<g id="html">
		    <path d="M51.895 106.535a9.039 9.039 0 0 1-6.018-2.284L0 63.469l48.427-43.05a9.066 9.066 0 0 1 12.042 13.555L27.296 63.469l30.628 27.217a9.072 9.072 0 0 1-6.018 15.85Zm81.1-.017 48.427-43.05-45.876-40.782a9.065 9.065 0 0 0-12.038 13.554l30.628 27.228-33.176 29.484a9.068 9.068 0 0 0 12.036 13.566Zm-42.408 12.846 18.133-108.8a9.063 9.063 0 1 0-17.878-2.986l-18.134 108.8a9.066 9.066 0 0 0 7.452 10.438 9.616 9.616 0 0 0 1.5.119 9.068 9.068 0 0 0 8.931-7.571Z"/>

	</g>
</svg>
